#!OML:ASF F:\VICON\USERDATA\INSTALL\rory3\rory3.ASF
:FULLY-SPECIFIED
:DEGREES
1242
root -12.2606 17.7325 9.80107 -187.287 71.8307 171.1
lowerback 12.662 2.20567 0.525424
upperback -0.246203 3.05711 0.267943
thorax -7.35791 1.4847 -0.5876
lowerneck -22.3811 -4.4538 -11.3639
upperneck 30.2325 -3.42656 5.75771
head 14.5122 -1.76351 3.7114
rclavicle -6.90777e-015 -5.56597e-015
rhumerus -36.9923 -17.8298 -71.3558
rradius 35.8089
rwrist 3.27854
rhand -18.3845 8.86564
rfingers 7.12502
rthumb 7.89923 -20.9668
lclavicle -6.90777e-015 -5.56597e-015
lhumerus -31.6435 6.6576 84.9188
lradius 27.6164
lwrist -7.93773
lhand -20.3133 24.3006
lfingers 7.12502
lthumb 6.03736 54.1946
rfemur -3.37151 9.43508 4.70511
rtibia 19.7089
rfoot -14.9988 3.76156
rtoes -10.1425
lfemur -10.7116 -10.2944 -16.0027
ltibia 23.274
lfoot -11.9157 -15.894
ltoes 3.71421
1243
root -12.2844 17.7375 9.71924 -186.767 72.4533 171.567
lowerback 12.721 2.23915 0.714058
upperback -0.322791 3.13352 0.31629
thorax -7.46531 1.51388 -0.661365
lowerneck -22.3071 -4.41167 -11.2799
upperneck 30.2546 -3.41382 5.77836
head 14.5019 -1.74572 3.70924
rclavicle -9.29318e-015 -1.90833e-014
rhumerus -37.2012 -17.6082 -71.6228
rradius 35.9397
rwrist 3.23444
rhand -18.504 8.76482
rfingers 7.12502
rthumb 7.78391 -21.0719
lclavicle -9.29318e-015 -1.90833e-014
lhumerus -31.5545 6.16784 84.9347
lradius 27.6241
lwrist -7.67621
lhand -20.1224 24.153
lfingers 7.12502
lthumb 6.22167 54.0417
rfemur -3.65083 9.2181 4.81671
rtibia 19.7266
rfoot -14.6573 3.17182
rtoes -10.5484
lfemur -10.7095 -9.69459 -16.0396
ltibia 23.3187
lfoot -11.993 -15.938
ltoes 3.60035
1244
root -12.3059 17.7406 9.64093 -186.547 73.1479 171.762
lowerback 12.7245 2.31996 0.679931
upperback -0.320034 3.24439 0.426225
thorax -7.47158 1.57137 -0.54703
lowerneck -22.3757 -4.38859 -11.2429
upperneck 30.3221 -3.38109 5.75925
head 14.5418 -1.73108 3.70355
rclavicle 2.91716e-014 -1.98785e-014
rhumerus -37.2171 -17.3141 -71.8469
rradius 35.9877
rwrist 3.13655
rhand -18.4742 8.91684
rfingers 7.12502
rthumb 7.81267 -20.9188
lclavicle 2.91716e-014 -1.98785e-014
lhumerus -31.3822 5.65748 85.1081
lradius 27.6555
lwrist -7.38618
lhand -19.7164 24.2317
lfingers 7.12502
lthumb 6.6136 54.1084
rfemur -3.94165 8.97397 4.89544
rtibia 19.8253
rfoot -14.2748 2.13983
rtoes -11.2743
lfemur -10.7034 -9.26178 -16.193
ltibia 23.4973
lfoot -12.4131 -15.5742
ltoes 1.20126
1245
root -12.3281 17.7474 9.56631 -186.583 73.8995 171.784
lowerback 12.757 2.40741 0.567175
upperback -0.240014 3.35272 0.531044
thorax -7.41629 1.63184 -0.39286
lowerneck -22.4983 -4.33789 -11.2012
upperneck 30.3729 -3.30549 5.73986
head 14.5809 -1.69793 3.70433
rclavicle 3.05134e-014 -9.54166e-015
rhumerus -37.0537 -17.042 -72.1392
rradius 35.9104
rwrist 3.08807
rhand -18.3995 9.15879
rfingers 7.12502
rthumb 7.88479 -20.6742
lclavicle 3.05134e-014 -9.54166e-015
lhumerus -31.1989 5.05565 85.3236
lradius 27.8271
lwrist -7.12669
lhand -19.6324 24.527
lfingers 7.12502
lthumb 6.69467 54.4012
rfemur -4.17371 8.66773 4.95449
rtibia 20.0318
rfoot -13.8654 1.24542
rtoes -10.125
lfemur -10.6039 -8.85012 -16.372
ltibia 23.692
lfoot -12.5588 -15.2546
ltoes 0.86993
1246
root -12.3495 17.7616 9.49229 -186.643 74.589 171.774
lowerback 12.782 2.4739 0.549505
upperback -0.177193 3.44004 0.54525
thorax -7.36463 1.6763 -0.383854
lowerneck -22.5539 -4.28922 -11.103
upperneck 30.4078 -3.28329 5.77882
head 14.6033 -1.67225 3.70943
rclavicle 3.51352e-014 -2.3059e-014
rhumerus -36.9562 -16.8249 -72.5368
rradius 35.8731
rwrist 3.14306
rhand -18.3755 9.18189
rfingers 7.12502
rthumb 7.90797 -20.6502
lclavicle 3.51352e-014 -2.3059e-014
lhumerus -31.2021 4.3449 85.4458
lradius 28.157
lwrist -6.90033
lhand -20.2528 24.6734
lfingers 7.12502
lthumb 6.09574 54.5657
rfemur -4.43824 8.14457 5.0022
rtibia 20.3861
rfoot -13.5485 0.693106
rtoes -6.68133
lfemur -10.5128 -8.18024 -16.5644
ltibia 23.8479
lfoot -12.6163 -15.2594
ltoes 1.61723
1247
root -12.3707 17.7625 9.42129 -186.729 75.2164 171.692
lowerback 12.7341 2.53893 0.53897
upperback -0.104877 3.52249 0.519271
thorax -7.25871 1.71792 -0.416408
lowerneck -22.5502 -4.27715 -11.1082
upperneck 30.3747 -3.33987 5.98145
head 14.5968 -1.66903 3.78342
rclavicle -3.54831e-014 -1.66979e-014
rhumerus -36.8328 -16.5457 -72.9832
rradius 35.8873
rwrist 3.33974
rhand -18.3016 9.24452
rfingers 7.12502
rthumb 7.97925 -20.5849
lclavicle -3.54831e-014 -1.66979e-014
lhumerus -31.311 3.65713 85.5309
lradius 28.642
lwrist -6.5902
lhand -21.0282 25.0159
lfingers 7.12502
lthumb 5.34716 54.9284
rfemur -4.83012 7.20133 5.08781
rtibia 20.893
rfoot -13.5205 0.0687094
rtoes -6.68413
lfemur -10.4572 -7.83674 -16.7752
ltibia 23.9691
lfoot -12.622 -15.0141
ltoes 2.46358
